<?xml version="1.0" standalone="no"?>
<!DOCTYPE svg PUBLIC "-//W3C//DTD SVG 20010904//EN"
 "http://www.w3.org/TR/2001/REC-SVG-20010904/DTD/svg10.dtd">
<svg version="1.0" xmlns="http://www.w3.org/2000/svg"
 width="512.000000pt" height="512.000000pt" viewBox="0 0 512.000000 512.000000"
 preserveAspectRatio="xMidYMid meet">
<metadata>
Created by potrace 1.11, written by Peter Selinger 2001-2013
</metadata>
<g transform="translate(0.000000,512.000000) scale(0.100000,-0.100000)"
fill="#000000" stroke="none">
<path d="M3370 4987 c0 -5 -7 -7 -15 -4 -8 4 -17 2 -21 -4 -3 -6 -12 -8 -20
-5 -8 3 -14 1 -14 -4 0 -6 -5 -10 -11 -10 -5 0 -7 6 -4 13 4 6 0 4 -9 -7 -8
-10 -19 -15 -25 -11 -6 3 -11 1 -11 -5 0 -6 -4 -9 -9 -5 -5 3 -12 1 -16 -5 -4
-6 -10 -8 -15 -5 -5 3 -11 1 -15 -5 -4 -6 -11 -7 -17 -4 -6 4 -17 -1 -24 -11
-7 -9 -26 -19 -43 -20 -16 -1 -37 -10 -46 -18 -9 -9 -23 -13 -32 -10 -12 5
-14 3 -8 -8 7 -12 6 -12 -11 1 -10 8 -16 10 -12 6 9 -10 -30 -41 -39 -32 -3 3
-12 -2 -20 -12 -9 -10 -12 -11 -7 -2 5 10 -1 8 -16 -5 -15 -13 -21 -15 -16 -5
4 9 2 8 -7 -2 -8 -10 -19 -18 -26 -18 -6 0 -14 -7 -17 -15 -4 -8 -10 -12 -15
-9 -6 3 -16 0 -24 -6 -8 -6 -20 -8 -27 -4 -8 5 -8 1 2 -11 8 -10 10 -16 4 -12
-7 4 -17 0 -24 -8 -8 -9 -21 -13 -32 -9 -12 4 -18 1 -16 -8 2 -7 -5 -12 -14
-12 -10 1 -18 -5 -18 -13 0 -8 -5 -11 -10 -8 -6 3 -13 -1 -16 -9 -3 -9 -10
-13 -15 -10 -5 3 -9 0 -9 -6 0 -6 -4 -9 -9 -6 -5 4 -11 3 -13 -1 -7 -17 -70
-63 -79 -57 -5 3 -8 0 -7 -8 2 -7 -3 -12 -9 -11 -7 2 -13 -2 -13 -7 0 -6 -7
-10 -15 -10 -14 0 -19 -12 -16 -32 0 -5 -2 -7 -7 -7 -19 3 -33 -2 -27 -11 3
-5 -1 -10 -9 -10 -8 0 -21 -9 -29 -20 -8 -11 -17 -17 -20 -13 -4 3 -7 -1 -7
-11 0 -9 -4 -14 -10 -11 -9 6 -14 -7 -11 -27 0 -4 -6 -5 -13 -2 -16 6 -40 -29
-28 -40 3 -4 -2 -4 -12 0 -14 5 -17 4 -12 -4 4 -7 3 -12 -3 -12 -5 0 -12 -9
-16 -20 -3 -11 -12 -19 -18 -17 -7 1 -11 -6 -11 -15 1 -10 -2 -16 -6 -13 -4 3
-14 -3 -21 -12 -12 -14 -12 -16 0 -8 10 5 12 4 7 -3 -4 -7 -14 -12 -23 -12 -9
0 -14 -3 -10 -6 3 -4 -4 -15 -16 -26 -12 -11 -15 -16 -7 -12 8 4 2 -5 -13 -19
-16 -15 -25 -32 -21 -39 4 -7 3 -8 -4 -4 -7 4 -12 1 -12 -8 0 -9 -4 -16 -10
-16 -5 0 -6 -7 -3 -17 4 -10 2 -14 -4 -10 -12 8 -35 -47 -25 -59 4 -4 2 -4 -4
-1 -7 4 -16 -10 -24 -33 -7 -22 -17 -37 -22 -34 -5 3 -8 2 -7 -3 5 -29 -2 -45
-17 -39 -14 5 -15 4 -4 -9 10 -12 10 -15 0 -15 -8 0 -11 -10 -8 -29 2 -17 2
-28 -1 -27 -3 2 -12 -2 -19 -10 -9 -10 -10 -14 -1 -14 8 0 6 -7 -4 -18 -10
-10 -14 -21 -11 -24 3 -4 0 -16 -6 -28 -10 -18 -10 -21 2 -14 10 6 11 5 1 -7
-10 -12 -17 -62 -14 -95 1 -5 14 -9 31 -8 17 1 30 -2 30 -8 0 -5 5 -6 10 -3 6
3 10 2 10 -4 0 -6 7 -8 15 -5 8 4 15 1 15 -6 0 -9 4 -9 17 1 11 10 14 10 9 2
-7 -13 4 -17 33 -14 7 2 10 -2 6 -8 -3 -6 2 -11 13 -11 10 0 43 -12 73 -26 30
-15 59 -27 66 -27 7 0 10 -4 8 -8 -3 -3 3 -13 12 -20 11 -10 14 -10 9 -2 -5 9
-2 11 8 7 9 -3 13 -10 10 -15 -3 -5 2 -9 10 -9 9 0 16 -4 16 -10 0 -5 7 -10
15 -10 8 0 15 -5 15 -11 0 -8 4 -8 14 0 12 10 13 8 9 -10 -4 -15 -3 -20 5 -15
7 4 15 0 18 -9 6 -13 8 -14 15 -3 6 9 9 7 9 -9 0 -14 6 -23 15 -23 14 0 20
-12 16 -33 -1 -5 3 -6 8 -3 12 8 43 -23 36 -35 -4 -5 -1 -9 5 -9 6 0 18 -6 26
-14 11 -11 11 -16 1 -19 -7 -3 -4 -6 6 -6 10 -1 15 -5 12 -11 -3 -5 1 -10 9
-10 9 0 13 -7 11 -20 -2 -12 2 -20 10 -20 7 0 16 -7 19 -16 6 -15 4 -15 -11
-3 -16 12 -16 11 0 -8 11 -12 16 -26 13 -31 -3 -5 1 -9 9 -9 8 0 12 4 9 9 -3
4 0 8 5 8 6 0 10 3 9 8 -1 4 4 27 12 52 7 25 12 56 11 69 0 14 5 28 11 33 10
6 10 8 -1 8 -11 0 -10 4 5 16 10 8 13 12 5 8 -10 -5 -12 -3 -5 7 10 16 11 20
13 52 1 18 3 19 11 7 13 -21 13 -3 -1 22 -7 13 -7 18 -1 14 6 -3 13 -2 17 4 3
5 1 10 -4 10 -6 0 -11 5 -11 11 0 5 4 8 9 5 5 -3 11 1 15 9 3 8 0 15 -7 15 -8
0 -6 4 3 10 8 5 12 10 8 10 -4 0 0 16 8 35 8 19 11 35 7 35 -5 0 -3 4 3 8 17
11 28 65 12 57 -7 -4 -2 2 11 13 13 11 21 24 17 31 -4 6 -2 11 4 11 6 0 9 4 5
9 -3 5 5 26 17 47 13 23 17 34 8 29 -8 -5 -4 6 9 24 13 18 21 35 17 38 -3 3 2
12 12 20 10 9 11 12 2 7 -9 -4 -6 3 6 17 12 13 19 30 17 37 -3 6 0 12 6 12 6
0 8 7 5 15 -4 9 1 18 11 21 13 5 14 9 4 15 -11 6 -10 9 4 15 9 3 17 15 17 25
0 10 5 19 11 19 5 0 7 5 3 12 -5 7 -2 9 8 6 11 -5 14 0 12 18 -1 13 2 22 7 18
5 -3 9 4 9 15 0 12 4 21 8 21 5 0 14 11 20 25 6 14 19 25 28 25 14 0 15 2 3
17 -10 11 -10 14 -1 9 11 -6 17 5 13 27 -2 12 6 8 20 -10 10 -11 10 -14 2 -9
-7 4 -14 2 -14 -3 -2 -12 -5 -26 -9 -38 -1 -5 -2 -11 -1 -15 0 -4 -6 -5 -14
-2 -11 5 -13 2 -8 -12 4 -12 3 -15 -5 -10 -8 5 -10 1 -5 -10 5 -13 3 -16 -10
-11 -9 3 -17 2 -17 -2 0 -5 5 -11 11 -13 9 -3 8 -11 -2 -28 -7 -14 -12 -30
-11 -36 1 -5 -7 -20 -18 -31 -11 -12 -15 -23 -9 -25 6 -2 7 -11 4 -21 -4 -9
-10 -15 -14 -13 -7 5 -8 -3 -13 -71 -2 -23 -6 -29 -15 -21 -9 7 -10 3 -3 -21
5 -19 5 -29 -1 -26 -5 4 -9 -3 -9 -15 0 -12 -4 -18 -10 -15 -5 3 -10 1 -10 -4
0 -6 4 -11 8 -11 5 0 9 -7 9 -15 0 -8 -4 -12 -9 -9 -4 3 -8 -6 -8 -20 0 -14
-6 -26 -12 -26 -10 0 -9 -3 1 -9 9 -6 10 -11 2 -15 -6 -4 -9 -12 -6 -17 4 -5
1 -9 -5 -9 -6 0 -8 -5 -5 -10 4 -6 1 -18 -7 -27 -9 -12 -9 -15 0 -9 14 9 16
-6 2 -20 -5 -5 -11 -29 -12 -52 -1 -23 -5 -39 -11 -35 -5 3 -4 -5 3 -17 11
-20 10 -22 -4 -17 -12 5 -15 3 -9 -6 11 -18 12 -36 3 -42 -5 -3 -7 -14 -5 -25
2 -11 -2 -20 -8 -20 -7 0 -6 -4 3 -10 9 -6 10 -10 3 -10 -6 0 -10 -9 -8 -20 2
-11 -1 -22 -7 -26 -6 -4 -5 -10 3 -15 10 -6 10 -9 2 -9 -7 0 -10 -7 -6 -17 4
-10 2 -14 -4 -10 -8 5 -10 -15 -4 -42 1 -2 7 2 14 8 8 6 17 8 20 5 4 -4 5 3 2
15 -2 13 3 25 16 31 11 6 17 15 14 21 -4 5 0 9 8 9 7 0 20 11 27 25 7 13 17
22 22 19 4 -3 8 2 8 11 0 11 5 15 15 11 9 -3 15 0 15 9 0 7 4 17 10 20 6 4 7
-1 4 -12 -3 -10 3 -6 13 10 11 15 22 24 26 21 4 -4 16 4 28 17 11 13 17 18 14
11 -6 -11 -3 -11 14 0 12 7 21 16 21 21 0 4 5 5 10 2 6 -3 10 -1 10 4 0 6 3
11 8 10 4 -1 18 2 30 6 18 6 20 10 10 16 -8 6 1 7 22 3 25 -4 31 -3 21 4 -11
8 -3 12 32 17 26 4 44 11 42 16 -3 4 3 8 12 8 40 1 53 5 53 15 0 6 4 4 10 -4
8 -12 10 -12 16 3 5 14 9 15 20 6 10 -8 14 -8 14 0 0 6 5 11 11 11 5 0 7 -6 3
-12 -6 -10 -5 -10 7 -1 9 7 33 15 55 19 21 3 42 8 47 11 4 2 7 -2 7 -9 0 -9 3
-9 10 2 9 13 10 13 10 0 0 -13 1 -13 10 0 8 13 10 13 10 1 0 -11 4 -10 16 5 8
10 12 12 8 4 -7 -13 -5 -13 9 -1 13 10 17 10 17 1 0 -9 4 -9 17 1 15 12 16 12
8 -1 -8 -13 -7 -13 8 -1 14 11 17 11 17 0 0 -11 2 -11 10 1 8 12 10 12 10 1 0
-11 3 -11 15 -1 12 10 15 10 15 -1 0 -11 2 -11 10 1 7 11 10 11 10 2 0 -9 5
-10 18 -3 13 7 23 6 31 -2 9 -9 16 -9 31 1 16 10 18 9 14 -3 -4 -8 -1 -15 5
-15 6 0 11 6 11 13 0 8 4 7 10 -3 8 -12 10 -12 10 -1 0 10 3 11 13 2 10 -8 17
-7 26 2 10 9 11 8 6 -5 -4 -10 -3 -18 3 -18 17 0 35 29 29 50 -3 11 -1 20 3
20 5 0 4 15 -1 32 -11 40 -11 40 -1 35 9 -6 6 61 -4 87 -6 15 -4 17 7 11 12
-7 12 -6 1 7 -10 13 -10 17 0 21 9 4 10 6 1 6 -7 1 -10 8 -7 16 4 9 0 15 -7
15 -11 0 -11 3 1 10 8 5 11 10 5 10 -5 0 -11 16 -12 37 -1 20 -8 40 -15 44
-10 7 -10 9 1 9 10 0 11 3 2 13 -8 10 -7 17 2 27 10 10 9 11 -2 5 -11 -6 -13
-3 -9 13 4 14 2 20 -5 15 -6 -4 -8 2 -5 15 4 12 3 22 -1 22 -7 0 -31 94 -31
123 0 9 -4 17 -10 17 -5 0 -10 11 -10 25 0 14 -4 25 -10 25 -5 0 -10 12 -10
26 0 14 -4 23 -8 20 -5 -3 -8 5 -7 17 1 12 -3 25 -8 29 -9 6 -13 17 -19 65 -1
8 -5 9 -12 4 -8 -7 -11 1 -11 22 0 20 -5 31 -12 30 -7 -2 -10 4 -7 12 4 8 1
15 -6 15 -10 0 -10 3 0 15 10 12 10 15 -4 15 -9 0 -15 3 -14 8 4 13 -13 52
-23 52 -5 0 -9 9 -9 20 0 12 -7 20 -17 20 -15 0 -16 2 -3 10 13 8 12 10 -3 10
-10 0 -17 6 -16 13 3 19 -12 48 -22 41 -5 -3 -12 9 -15 26 -4 17 -11 33 -17
37 -6 4 -7 1 -2 -7 5 -8 4 -11 -3 -6 -6 4 -9 13 -5 21 3 10 -1 15 -13 15 -16
0 -17 2 -4 10 13 8 12 10 -2 10 -10 0 -17 6 -15 13 1 6 -4 11 -12 9 -8 -2 -11
3 -8 12 3 8 -4 22 -18 32 -13 10 -22 21 -19 26 3 4 -2 8 -10 8 -9 0 -16 9 -16
21 0 11 -4 17 -10 14 -5 -3 -10 1 -10 10 0 9 -4 13 -10 10 -5 -3 -10 -1 -10 5
0 5 -13 9 -30 8 -16 -1 -30 -6 -30 -11z m-540 -1741 c0 -2 -8 -10 -17 -17 -16
-13 -17 -12 -4 4 13 16 21 21 21 13z"/>
<path d="M1305 3599 c-4 -6 -5 -12 -2 -15 2 -3 7 2 10 11 7 17 1 20 -8 4z"/>
<path d="M1329 3593 c-13 -16 -12 -17 4 -4 9 7 17 15 17 17 0 8 -8 3 -21 -13z"/>
<path d="M1360 3595 c-11 -13 -10 -14 4 -9 9 3 16 10 16 15 0 13 -6 11 -20 -6z"/>
<path d="M1406 3599 c2 -4 -2 -10 -8 -12 -8 -4 -9 -6 -2 -6 6 -1 17 5 23 12 8
10 7 14 -4 14 -8 0 -12 -4 -9 -8z"/>
<path d="M1460 3595 c-7 -9 -8 -15 -2 -15 5 0 12 7 16 15 3 8 4 15 2 15 -2 0
-9 -7 -16 -15z"/>
<path d="M1489 3593 c-13 -16 -12 -17 4 -4 9 7 17 15 17 17 0 8 -8 3 -21 -13z"/>
<path d="M1520 3595 c-11 -13 -10 -14 4 -9 9 3 16 10 16 15 0 13 -6 11 -20 -6z"/>
<path d="M1566 3599 c2 -4 -2 -10 -8 -12 -8 -4 -9 -6 -2 -6 6 -1 17 5 23 12 8
10 7 14 -4 14 -8 0 -12 -4 -9 -8z"/>
<path d="M1600 3595 c-7 -9 -8 -15 -2 -15 5 0 12 7 16 15 3 8 4 15 2 15 -2 0
-9 -7 -16 -15z"/>
<path d="M1203 3593 c-15 -5 -17 -23 -4 -23 5 0 11 7 15 15 3 8 4 15 3 14 -1
0 -8 -3 -14 -6z"/>
<path d="M1233 3588 c-2 -5 -2 -12 1 -17 6 -9 -13 -15 -94 -26 -62 -9 -277
-63 -324 -81 -21 -8 -41 -13 -43 -10 -6 5 22 37 28 33 2 -1 3 0 2 2 -2 2 3 11
9 20 7 9 2 7 -11 -4 -16 -13 -25 -16 -28 -8 -4 12 -43 5 -83 -17 -23 -12 -23
-14 -17 -154 8 -203 59 -439 126 -581 15 -33 36 -80 47 -105 63 -150 223 -357
333 -432 25 -18 48 -35 51 -39 3 -5 17 -12 30 -18 20 -8 9 -10 -51 -10 -73 -1
-77 -2 -83 -25 -3 -13 -9 -31 -12 -40 -5 -13 3 -16 52 -18 l59 -2 -70 -5 c-38
-3 -71 -3 -73 1 -2 3 6 25 18 47 l20 41 -87 0 -88 0 -17 -41 c-10 -22 -22 -38
-27 -35 -5 4 -13 2 -16 -4 -4 -6 -3 -10 2 -9 21 4 21 -5 -3 -58 -47 -105 -85
-197 -95 -231 -6 -19 -12 -32 -14 -30 -2 2 15 81 38 176 24 95 45 171 47 168
3 -2 5 11 6 29 0 32 -1 33 -40 37 -59 5 -121 -5 -124 -20 -3 -19 -53 -274 -58
-297 -2 -11 -15 -78 -29 -148 -14 -71 -25 -135 -25 -143 0 -11 23 -14 115 -14
l116 0 55 118 c30 64 74 158 97 207 23 50 51 108 63 130 22 43 54 59 54 28 0
-10 -35 -123 -78 -251 l-78 -233 79 3 80 3 57 165 c32 91 72 203 89 250 20 51
28 86 22 88 -19 6 -12 32 8 32 12 0 21 9 25 24 11 45 109 36 135 -12 15 -29
15 -30 -18 -37 -73 -16 -148 -105 -164 -195 -3 -14 -17 -63 -33 -110 -43 -133
-36 -177 33 -207 72 -30 173 -7 235 54 33 32 88 128 88 153 0 6 -30 10 -67 11
l-68 0 45 15 c25 7 59 14 76 14 29 0 32 4 53 65 28 87 28 139 -2 169 -23 22
-23 24 -5 35 11 7 33 9 52 5 33 -6 34 -7 25 -37 -11 -38 -65 -296 -74 -352
-11 -72 -16 -100 -21 -117 -5 -16 3 -18 79 -18 l84 0 43 90 c24 49 46 88 48
85 2 -2 -3 -35 -12 -74 -24 -107 -28 -101 68 -101 l83 0 73 163 c40 89 89 197
108 239 19 43 38 75 42 73 5 -3 6 4 3 15 -5 17 -14 20 -68 20 -60 0 -63 -1
-75 -30 -7 -16 -17 -27 -23 -23 -6 3 -7 1 -3 -6 6 -9 -58 -161 -67 -161 -5 0
27 155 33 160 3 3 6 17 7 33 1 27 0 27 -62 27 -62 0 -68 -3 -80 -40 -7 -22
-85 -173 -85 -165 0 14 28 146 32 150 2 1 12 7 23 14 19 11 19 12 -3 5 -21 -5
-23 -3 -17 15 6 19 2 21 -37 22 -24 1 -49 1 -55 0 -7 -1 -13 3 -13 9 0 6 5 8
10 5 6 -3 10 1 10 10 0 9 -4 14 -8 11 -4 -2 -14 -1 -22 4 -7 4 -24 4 -37 -1
-14 -5 -23 -5 -23 1 0 10 54 22 80 18 29 -5 160 13 165 23 4 5 20 9 36 9 45 0
219 80 259 120 25 25 25 25 8 60 -10 19 -31 47 -48 61 -16 15 -30 30 -30 33 0
4 -10 18 -22 31 -13 12 -32 36 -43 51 -11 15 -54 62 -95 105 -41 42 -87 90
-102 106 -15 15 -48 46 -73 68 -25 22 -45 43 -45 46 0 14 33 19 47 8 17 -15
25 -8 13 11 -8 12 -15 13 -42 2 -35 -13 -34 -14 -105 61 -14 15 -32 27 -39 27
-7 0 -18 9 -24 20 -6 11 -18 20 -26 20 -10 0 -14 6 -11 14 4 9 1 13 -6 10 -7
-2 -31 11 -52 31 -22 20 -50 38 -62 41 -13 4 -23 10 -23 14 0 5 -20 18 -45 30
-25 12 -45 26 -45 30 0 10 -129 80 -147 80 -7 0 -13 3 -13 8 0 4 -27 18 -60
30 -54 21 -60 26 -60 53 0 25 4 29 27 29 75 0 447 -172 645 -298 226 -144 507
-358 664 -505 l63 -59 20 46 c12 24 21 50 21 55 0 6 4 11 9 11 5 0 11 23 15
51 4 28 14 58 22 66 21 21 20 231 -1 239 -8 3 -17 26 -21 50 -3 24 -10 44 -15
44 -4 0 -11 16 -15 35 -3 19 -10 35 -14 35 -4 0 -13 14 -20 31 -7 17 -25 43
-39 59 -14 15 -36 42 -49 59 -13 17 -30 31 -37 31 -8 0 -23 13 -34 29 -12 16
-32 32 -46 35 -14 4 -25 10 -25 15 0 11 -67 51 -86 51 -8 0 -14 4 -14 10 0 5
-18 14 -39 20 -22 6 -41 14 -43 19 -6 18 -211 81 -326 102 -94 16 -149 20
-281 17 -115 -2 -165 0 -168 8 -2 7 6 10 22 9 14 -2 25 0 25 5 0 10 -50 8 -57
-2z m-355 -873 c-3 -3 -9 2 -12 12 -6 14 -5 15 5 6 7 -7 10 -15 7 -18z m153
-272 c13 -16 12 -17 -3 -4 -10 7 -18 15 -18 17 0 8 8 3 21 -13z m99 -108 c47
-47 82 -85 80 -85 -3 0 -43 38 -90 85 -47 47 -82 85 -80 85 3 0 43 -38 90 -85z
m340 -401 c0 -25 -26 -84 -37 -84 -17 0 -16 9 2 54 13 31 35 50 35 30z m-63
-205 c2 -53 -32 -129 -58 -129 -24 0 -24 16 2 87 35 93 54 108 56 42z"/>
<path d="M1646 3585 c4 -10 13 -14 22 -10 8 3 19 0 24 -7 6 -10 8 -10 8 1 0
11 5 10 20 -4 11 -10 20 -16 21 -14 0 2 2 12 4 22 2 9 -1 17 -6 17 -5 0 -9 -5
-9 -11 0 -6 -5 -7 -12 -2 -7 4 -22 8 -33 8 -11 0 -26 4 -32 8 -9 6 -11 3 -7
-8z"/>
<path d="M1065 3570 c-4 -6 -10 -8 -15 -5 -5 3 -11 1 -15 -5 -3 -5 -11 -10
-16 -10 -6 0 -7 5 -3 12 4 7 3 8 -4 4 -6 -4 -9 -13 -5 -22 5 -13 8 -13 22 -1
9 8 21 13 27 10 6 -2 14 3 17 12 7 17 2 20 -8 5z"/>
<path d="M1135 3570 c3 -5 8 -10 11 -10 2 0 4 5 4 10 0 6 -5 10 -11 10 -5 0
-7 -4 -4 -10z"/>
<path d="M1788 3568 c-5 -11 0 -15 15 -14 12 0 21 -3 20 -9 -1 -5 13 -10 30
-9 18 0 40 -6 50 -14 9 -9 20 -12 24 -8 12 12 -16 30 -54 33 -20 1 -40 8 -44
14 -4 6 -11 9 -17 5 -6 -3 -12 -1 -14 6 -3 8 -6 7 -10 -4z"/>
<path d="M947 3533 c4 -9 10 -10 23 -3 9 5 20 7 24 5 3 -3 3 -2 0 3 -10 13
-52 9 -47 -5z"/>
<path d="M897 3526 c4 -5 -3 -7 -15 -4 -12 4 -25 2 -28 -3 -3 -5 -9 -7 -14 -4
-4 3 -10 -1 -13 -8 -3 -7 3 -13 13 -13 10 0 18 5 17 11 -1 5 8 9 20 7 12 -2
24 2 28 8 3 5 11 10 16 10 6 0 7 -5 3 -12 -4 -7 -3 -8 5 -4 16 10 4 25 -19 23
-10 -1 -16 -5 -13 -11z"/>
<path d="M1940 3520 c0 -9 14 -14 33 -11 4 0 7 -3 7 -8 0 -7 27 -20 53 -25 4
0 12 -8 17 -16 5 -8 10 -10 10 -5 0 6 5 3 10 -5 9 -13 10 -13 10 0 1 11 4 10
15 -4 11 -14 15 -16 15 -5 1 10 3 9 11 -4 6 -9 14 -15 20 -12 5 4 9 1 9 -4 0
-6 5 -11 10 -11 19 0 10 16 -20 33 -16 10 -30 15 -30 12 0 -4 -7 0 -15 9 -9 8
-23 12 -32 9 -12 -5 -14 -3 -8 7 5 8 4 11 -3 6 -6 -3 -13 -2 -17 4 -4 6 -11 8
-16 5 -5 -4 -9 -1 -9 5 0 6 -4 9 -9 5 -5 -3 -12 -1 -16 5 -4 6 -11 8 -16 5 -5
-4 -9 -1 -9 4 0 6 -4 11 -10 11 -5 0 -10 -4 -10 -10z"/>
<path d="M3610 3471 c0 -7 -6 -11 -15 -7 -8 3 -15 0 -15 -7 0 -8 -4 -7 -10 3
-9 13 -11 13 -21 0 -7 -11 -12 -12 -15 -3 -3 7 -12 9 -20 6 -7 -3 -12 -8 -10
-12 2 -3 -15 -6 -37 -5 -24 0 -50 -6 -59 -14 -15 -13 -18 -13 -18 -1 0 11 -2
12 -9 1 -4 -8 -17 -12 -27 -10 -12 2 -18 -2 -16 -11 3 -12 0 -12 -12 -1 -14
10 -16 10 -16 -5 0 -14 -3 -15 -14 -6 -11 9 -15 9 -19 -1 -4 -10 -8 -10 -16 2
-9 13 -11 13 -11 -2 0 -9 -5 -20 -12 -24 -7 -5 -8 -3 -3 6 6 10 4 11 -6 4 -8
-4 -20 -9 -26 -10 -7 -1 -20 -9 -29 -18 -8 -9 -20 -14 -25 -11 -5 4 -9 1 -9
-5 0 -6 -4 -8 -10 -5 -5 3 -10 1 -10 -5 0 -6 -4 -9 -9 -6 -5 3 -11 -1 -15 -9
-3 -8 -12 -15 -21 -15 -8 0 -15 -5 -15 -11 0 -5 -4 -7 -10 -4 -5 3 -10 1 -10
-4 0 -6 -6 -11 -14 -11 -19 0 -48 -29 -41 -41 4 -5 -1 -6 -9 -3 -9 3 -21 -6
-32 -25 -10 -17 -24 -31 -31 -31 -7 0 -13 -7 -13 -16 0 -8 -4 -13 -9 -10 -5 3
-14 -1 -21 -9 -11 -13 -10 -14 6 -9 11 3 7 -2 -9 -13 -15 -11 -24 -23 -20 -26
3 -4 -1 -7 -11 -7 -9 0 -15 -4 -11 -10 5 -8 -12 -48 -26 -60 -3 -3 -12 -23
-20 -45 -7 -22 -19 -47 -26 -56 -9 -11 -10 -18 -2 -26 7 -7 6 -14 -3 -24 -15
-16 -16 -28 -5 -46 6 -9 3 -11 -8 -7 -11 5 -14 2 -8 -12 5 -13 3 -15 -8 -9
-12 8 -12 6 0 -8 11 -14 11 -17 0 -17 -9 0 -10 -3 -4 -8 15 -11 12 -42 -5 -52
-13 -9 -13 -10 0 -10 13 0 13 -1 0 -10 -13 -9 -13 -10 0 -10 13 0 13 -1 0 -10
-9 -6 -10 -10 -3 -10 8 0 9 -9 3 -29 -6 -21 -5 -31 3 -35 8 -3 7 -5 -2 -5 -11
-1 -10 -5 5 -17 10 -8 13 -13 7 -9 -17 8 -17 -37 -1 -53 9 -9 9 -12 -1 -12
-10 0 -11 -3 -2 -14 9 -11 9 -15 -1 -19 -8 -4 -7 -6 4 -6 11 -1 15 -6 12 -15
-4 -11 0 -13 15 -9 12 3 21 9 21 14 0 5 9 9 21 9 11 0 18 4 14 9 -3 6 4 8 15
6 11 -2 26 3 34 11 8 8 20 14 26 14 6 0 8 4 5 10 -4 6 4 6 22 -1 15 -5 24 -7
20 -3 -4 4 2 14 14 22 11 8 23 11 26 8 3 -3 12 2 20 12 9 10 11 11 7 2 -7 -13
-5 -13 9 -1 9 7 17 10 17 5 0 -5 5 -1 11 9 6 9 15 14 21 11 6 -4 14 0 19 7 7
11 9 11 9 1 0 -10 3 -10 14 0 8 7 12 16 10 19 -2 3 8 4 21 1 15 -2 25 0 25 7
0 7 8 11 18 9 9 -2 16 2 15 8 -1 6 4 11 12 11 8 0 12 -4 9 -9 -8 -12 39 14 48
27 5 6 8 4 8 -5 0 -10 3 -11 8 -4 4 6 25 17 47 25 22 7 46 18 54 24 12 8 13 7
6 -5 -7 -12 -6 -13 7 -3 8 7 19 9 23 5 5 -4 5 2 1 12 -5 15 -4 16 7 8 8 -7 18
-7 27 -2 8 6 25 10 38 10 14 0 21 4 16 11 -4 8 0 9 15 4 16 -5 21 -2 21 12 0
10 4 14 8 8 10 -14 32 -17 32 -4 0 5 5 7 10 4 6 -3 10 -2 10 4 0 6 7 8 15 5 8
-4 15 -2 15 3 0 5 11 10 26 11 14 1 34 7 46 13 11 6 18 7 15 2 -4 -5 0 -10 8
-10 8 0 12 4 9 9 -3 4 2 8 11 8 10 0 13 5 9 13 -5 8 -2 8 9 -2 10 -7 17 -9 17
-3 0 6 11 9 25 7 17 -1 25 3 26 14 0 11 2 12 6 3 4 -10 9 -9 24 4 18 16 19 17
13 1 -5 -13 -2 -16 10 -11 9 3 14 10 11 14 -6 10 15 8 33 -3 7 -5 14 -2 18 7
3 9 12 12 21 9 11 -4 14 -2 9 5 -5 8 -2 10 9 6 8 -4 23 0 32 7 13 11 17 11 20
2 3 -7 9 -13 14 -13 6 0 8 4 5 8 -2 4 12 9 32 10 20 2 39 7 41 13 1 6 10 2 18
-8 8 -10 12 -13 9 -6 -4 6 -2 14 4 18 5 3 10 0 10 -7 0 -8 3 -9 8 -3 11 16 32
16 32 1 0 -19 -13 -27 -51 -31 -21 -3 -28 -1 -24 8 4 7 0 4 -8 -6 -8 -9 -21
-15 -29 -12 -9 4 -18 0 -21 -9 -4 -10 -17 -14 -41 -11 -24 2 -34 -1 -29 -8 4
-6 0 -8 -10 -4 -10 3 -17 2 -17 -4 0 -6 -4 -7 -10 -4 -5 3 -10 1 -10 -6 0 -8
-4 -8 -16 1 -12 11 -15 11 -12 -1 2 -9 -4 -13 -16 -11 -13 2 -16 -1 -10 -10 6
-10 4 -10 -9 1 -13 10 -17 10 -17 1 0 -8 -8 -10 -21 -7 -15 4 -18 2 -10 -7 10
-12 1 -14 -52 -16 -9 -1 -15 -5 -12 -9 2 -5 -4 -11 -15 -14 -10 -3 -21 0 -24
7 -2 6 -5 3 -5 -7 -1 -10 -5 -15 -11 -12 -5 3 -10 2 -10 -4 0 -5 -9 -8 -21 -6
-13 3 -19 0 -16 -8 3 -7 -5 -13 -19 -14 -46 -4 -53 -6 -47 -16 4 -6 -1 -8 -11
-4 -9 4 -15 3 -12 -2 7 -11 -22 -23 -35 -15 -5 3 -9 0 -9 -6 0 -6 -4 -8 -10
-5 -5 3 -10 1 -10 -5 0 -6 -4 -9 -9 -6 -5 3 -11 -1 -15 -9 -3 -8 -13 -15 -21
-15 -10 0 -13 5 -9 12 4 7 3 8 -5 4 -6 -4 -9 -12 -6 -17 4 -5 -3 -9 -15 -9
-12 0 -19 -4 -16 -9 3 -5 -2 -8 -12 -7 -10 0 -16 -5 -14 -13 2 -11 0 -12 -11
-2 -12 9 -16 8 -20 -4 -4 -8 -13 -12 -22 -9 -10 4 -15 2 -13 -7 2 -9 -5 -14
-20 -13 -15 1 -21 -3 -18 -12 3 -8 0 -11 -10 -7 -7 3 -14 0 -14 -7 0 -6 -4 -8
-10 -5 -5 3 -10 1 -10 -5 0 -7 -6 -10 -14 -7 -8 3 -17 -1 -20 -10 -4 -9 -9
-13 -13 -10 -3 4 -12 -1 -20 -11 -10 -11 -12 -12 -8 -2 6 13 5 13 -7 0 -7 -8
-20 -16 -28 -18 -8 -2 -22 -11 -30 -20 -8 -9 -22 -17 -30 -17 -8 0 -14 -5 -13
-12 2 -7 -4 -10 -12 -7 -8 4 -15 1 -15 -6 0 -6 -4 -9 -9 -5 -6 3 -14 -3 -20
-12 -6 -10 -11 -14 -11 -9 0 5 -9 1 -19 -8 -11 -10 -25 -15 -32 -10 -8 5 -10
3 -5 -5 5 -8 0 -14 -13 -18 -12 -3 -21 -9 -21 -14 0 -5 -7 -9 -15 -9 -8 0 -15
-5 -15 -11 0 -5 -4 -8 -9 -5 -17 11 -21 -38 -4 -54 9 -8 13 -9 9 -2 -4 6 -2
12 3 12 6 0 11 -8 11 -18 0 -10 9 -24 20 -32 11 -8 20 -20 20 -28 0 -7 5 -10
10 -7 6 3 10 -1 10 -10 0 -9 5 -13 10 -10 6 3 10 -1 10 -10 0 -9 3 -14 8 -12
9 6 52 -39 45 -47 -4 -3 1 -6 10 -6 9 0 17 -6 17 -13 0 -7 10 -18 23 -26 21
-13 21 -13 7 6 -8 10 -3 7 11 -7 34 -35 94 -71 103 -63 4 4 4 -1 0 -11 -6 -15
-3 -17 15 -11 12 4 20 2 19 -3 -2 -6 0 -9 4 -9 4 1 14 -7 23 -18 9 -11 13 -13
9 -5 -7 12 -5 13 8 3 8 -7 17 -11 20 -8 3 3 13 -4 23 -15 10 -11 29 -20 42
-20 12 0 23 -5 23 -11 0 -5 5 -7 12 -3 6 4 17 -1 25 -11 7 -11 13 -16 13 -12
0 4 16 1 35 -7 19 -8 35 -12 35 -9 0 3 6 0 14 -6 11 -9 15 -9 19 1 3 9 7 8 12
-5 7 -16 8 -16 20 -1 9 14 14 14 20 4 6 -9 4 -11 -5 -5 -9 5 -11 4 -6 -4 5 -7
12 -9 19 -3 14 10 27 10 45 -1 7 -5 12 -4 12 2 0 6 7 8 15 5 8 -4 12 -11 9
-18 -3 -6 2 -2 10 8 9 11 16 14 16 7 0 -7 5 -9 13 -4 17 11 67 11 74 0 3 -5 9
-3 14 4 6 10 9 11 9 2 0 -7 5 -13 11 -13 5 0 7 4 4 10 -3 6 1 7 9 4 9 -3 16
-2 16 4 0 6 9 8 20 5 11 -3 28 1 37 8 12 10 14 10 9 2 -4 -7 -3 -13 3 -13 5 0
15 8 20 18 6 9 11 12 11 6 0 -6 7 -11 14 -11 8 0 15 3 14 6 -2 19 4 24 12 11
7 -11 10 -11 10 -2 0 7 5 10 10 7 6 -3 10 -1 10 5 0 6 10 10 23 8 15 -2 21 2
19 11 -3 12 0 12 12 1 12 -9 16 -9 16 -1 0 7 6 11 14 9 8 -2 22 6 31 17 9 11
13 14 10 7 -6 -11 -3 -11 13 -1 12 7 18 18 14 24 -3 5 2 4 11 -4 15 -12 17
-11 17 3 0 10 5 14 10 11 6 -3 10 -1 10 5 0 6 4 9 9 6 4 -3 21 6 37 19 16 14
35 23 41 20 7 -2 12 1 10 8 -1 7 6 11 15 11 10 -1 16 2 13 6 -2 4 3 16 11 26
9 10 13 12 9 4 -4 -8 2 -5 13 7 11 12 22 19 26 16 3 -4 6 -1 6 5 0 7 7 12 15
12 9 0 12 6 8 17 -4 10 -2 14 4 10 6 -4 18 -1 26 7 8 8 18 12 23 8 5 -4 2 2
-6 12 -14 18 -13 19 3 13 11 -4 17 -2 17 8 0 8 6 15 14 15 8 0 18 9 21 20 3
11 13 20 21 20 12 0 18 12 15 32 0 4 8 5 19 3 14 -3 17 1 13 12 -4 11 -2 14 5
9 7 -4 12 -1 12 8 0 9 4 16 9 16 6 0 18 13 27 29 10 17 21 28 26 25 4 -3 8 2
8 11 0 9 5 13 10 10 6 -4 10 -3 9 2 -4 21 3 32 22 38 16 5 18 9 8 21 -10 12
-9 13 6 8 12 -5 16 -4 12 3 -4 6 0 14 9 17 8 3 12 10 9 16 -3 5 1 10 9 10 10
0 13 7 11 20 -2 11 0 18 6 15 5 -4 9 1 9 9 0 9 7 16 16 16 8 0 13 4 10 9 -3 5
1 12 10 15 14 5 14 9 3 23 -8 9 -9 14 -2 10 7 -4 15 5 22 24 6 17 15 28 21 24
6 -4 9 -3 8 2 -4 14 13 53 23 53 5 0 9 9 9 20 0 10 9 24 21 30 16 9 18 14 8
26 -9 11 -9 14 1 14 7 0 10 7 6 17 -4 10 -4 14 0 11 11 -11 33 16 23 28 -6 7
-4 16 6 24 8 7 15 21 15 31 0 10 5 21 10 24 8 5 7 11 -1 21 -10 12 -9 13 4 8
11 -4 15 0 13 13 -2 10 2 21 8 25 8 5 7 8 -2 8 -7 0 -11 4 -8 9 3 5 -1 12 -10
15 -9 3 -12 11 -8 18 5 8 0 7 -11 -2 -10 -8 -16 -10 -12 -4 8 14 -16 37 -28
26 -5 -4 -5 -2 -2 4 4 7 -1 18 -10 25 -10 8 -14 9 -10 2 4 -6 3 -14 -3 -18 -5
-3 -10 3 -10 14 0 12 -7 21 -16 21 -8 0 -12 5 -9 10 4 6 3 9 -2 8 -16 -4 -53
14 -48 23 3 5 -2 6 -11 2 -12 -4 -15 -3 -10 5 4 7 1 12 -8 12 -9 0 -16 5 -16
11 0 5 -4 8 -9 4 -5 -3 -21 6 -35 20 -15 15 -26 20 -26 13 0 -9 -3 -9 -10 2
-5 8 -10 12 -10 8 0 -4 -11 4 -25 17 -13 14 -33 25 -45 25 -11 0 -20 5 -20 10
0 6 -9 10 -20 10 -11 0 -20 5 -20 11 0 6 -7 8 -16 5 -8 -3 -12 -2 -9 3 3 5 1
12 -5 16 -5 3 -10 0 -10 -7 0 -10 -2 -10 -9 1 -5 8 -14 10 -22 5 -10 -6 -10
-3 1 11 9 11 10 16 2 11 -7 -4 -26 0 -44 8 -17 9 -39 16 -50 16 -10 0 -18 5
-18 11 0 6 -9 9 -20 6 -11 -3 -18 -2 -15 3 3 4 -2 11 -11 14 -9 4 -13 2 -8 -5
3 -6 -5 -3 -19 6 -15 9 -32 13 -38 9 -8 -4 -9 -3 -5 4 5 8 -2 13 -21 14 -15 1
-36 2 -45 3 -9 0 -21 5 -25 9 -5 5 -2 6 6 1 9 -5 12 -4 7 3 -4 6 -13 9 -21 5
-8 -3 -15 -1 -15 3 0 5 -10 9 -22 10 -56 3 -88 9 -88 17 0 5 -9 7 -20 4 -10
-3 -21 0 -24 7 -3 8 -5 7 -5 -1 -1 -7 -8 -10 -16 -7 -8 4 -12 11 -8 17 4 6 1
7 -8 1 -21 -13 -39 -14 -39 -1 0 7 -5 5 -10 -3 -8 -13 -10 -13 -10 0 0 10 -3
11 -11 3 -9 -9 -16 -8 -27 3 -11 12 -17 12 -22 4 -6 -9 -9 -9 -13 1 -3 8 -6 9
-6 3 -1 -8 -12 -9 -36 -4 -20 5 -33 4 -29 -1 6 -11 6 -11 -34 0 -17 5 -32 6
-32 2 0 -8 -65 -5 -80 4 -6 3 -10 0 -10 -7 0 -9 -3 -9 -10 2 -7 12 -10 12 -10
1z m665 -583 c4 0 11 5 14 10 3 5 15 6 26 1 17 -6 11 -11 -11 -8 -4 0 -11 -5
-15 -13 -7 -11 -9 -11 -9 1 0 11 -3 11 -15 1 -9 -7 -18 -10 -22 -7 -3 4 -12
-1 -19 -11 -12 -16 -13 -15 -14 6 0 15 6 22 20 22 11 0 20 6 20 13 0 9 2 9 9
-1 4 -8 12 -14 16 -14z m125 12 c-8 -5 -17 -7 -21 -4 -4 2 -10 0 -14 -6 -3 -5
-11 -10 -18 -10 -19 0 24 26 46 27 17 2 18 0 7 -7z"/>
<path d="M2177 3415 c-4 -8 -2 -17 3 -20 6 -4 10 3 10 14 0 25 -6 27 -13 6z"/>
<path d="M2200 3403 c0 -6 5 -15 10 -18 6 -4 8 -11 4 -16 -3 -5 -2 -8 3 -7 15
4 53 -13 53 -24 0 -5 7 -8 14 -5 10 4 13 1 9 -9 -3 -7 0 -14 7 -14 6 0 8 -5 5
-10 -4 -7 3 -9 20 -6 22 4 25 3 15 -10 -10 -11 -9 -14 3 -14 8 0 17 -5 19 -12
3 -7 7 -5 11 6 5 11 3 15 -5 10 -8 -5 -9 -2 -5 9 3 10 2 17 -3 17 -20 0 -26 4
-52 34 -15 17 -28 27 -28 23 0 -4 -10 1 -22 12 -11 11 -25 18 -29 15 -4 -2
-12 4 -18 13 -6 10 -11 13 -11 6z"/>
<path d="M1056 3302 c-4 -7 -2 -12 4 -12 6 0 8 -5 4 -12 -5 -7 -2 -9 9 -5 9 3
18 1 21 -6 2 -7 5 -4 5 6 1 9 -5 17 -13 17 -8 0 -16 5 -18 12 -3 9 -6 9 -12 0z"/>
<path d="M1110 3274 c0 -12 11 -24 33 -32 17 -7 40 -18 50 -23 10 -5 22 -7 27
-4 6 4 10 0 10 -8 0 -18 49 -32 63 -18 8 8 7 15 -2 24 -10 8 -12 8 -7 0 3 -6
2 -15 -4 -18 -6 -4 -10 -3 -9 2 3 19 -2 34 -10 29 -5 -3 -14 1 -21 9 -7 8 -26
15 -42 15 -19 0 -27 4 -22 12 4 7 3 8 -5 4 -6 -4 -19 -2 -28 6 -14 11 -16 11
-9 -2 4 -8 0 -6 -8 4 -16 20 -16 20 -16 0z"/>
<path d="M2380 3247 c0 -10 7 -17 15 -17 8 0 15 -5 15 -11 0 -5 -4 -7 -10 -4
-6 3 -7 -1 -4 -9 3 -9 10 -13 15 -10 5 3 12 -2 15 -10 3 -9 10 -16 16 -16 5 0
6 4 3 10 -4 6 1 7 12 3 18 -7 -8 23 -54 61 -21 17 -23 17 -23 3z"/>
<path d="M1301 3183 c-7 -15 -9 -25 -5 -21 4 5 21 -7 37 -25 17 -17 26 -26 22
-18 -5 9 -3 12 6 9 8 -3 13 -10 12 -16 -2 -7 4 -9 14 -5 12 5 14 3 8 -7 -5 -8
-4 -11 2 -7 6 4 14 0 17 -9 3 -8 11 -12 16 -9 6 4 25 -7 41 -25 36 -37 119
-82 134 -72 5 4 0 8 -13 10 -12 2 -20 8 -17 13 4 5 1 10 -4 10 -6 1 -16 2 -22
3 -7 0 -15 10 -20 21 -4 11 -8 14 -8 8 -1 -7 -6 -13 -12 -13 -6 0 -8 7 -5 16
4 11 2 15 -7 11 -8 -3 -22 6 -32 19 -9 13 -21 21 -26 18 -5 -3 -9 0 -9 6 0 6
-4 8 -10 5 -5 -3 -10 3 -10 14 0 12 -5 21 -11 21 -5 0 -7 -4 -4 -10 3 -6 -1
-7 -9 -4 -21 8 -20 13 7 24 18 7 18 9 4 9 -12 1 -16 6 -11 14 4 6 3 9 -1 4 -5
-4 -19 0 -32 8 -13 9 -23 12 -23 8 0 -5 -4 -2 -8 5 -6 9 -12 5 -21 -15z m57
-12 c24 -13 23 -23 -3 -27 -8 -1 -21 8 -29 21 -17 26 -7 28 32 6z"/>
<path d="M1336 3167 c3 -10 9 -15 12 -12 3 3 0 11 -7 18 -10 9 -11 8 -5 -6z"/>
<path d="M2445 3161 c-3 -5 0 -15 7 -23 7 -7 14 -20 16 -28 2 -8 9 -22 16 -30
8 -8 11 -21 9 -27 -3 -7 1 -13 7 -13 7 0 10 -7 7 -14 -4 -10 -1 -13 7 -10 7 3
16 -2 20 -11 3 -9 2 -13 -3 -10 -5 3 -13 0 -17 -6 -4 -8 -3 -9 4 -5 8 5 12 0
12 -13 0 -12 5 -21 10 -21 6 0 10 -5 10 -11 0 -5 -5 -7 -12 -3 -7 4 -8 3 -4
-4 4 -6 14 -9 24 -6 16 5 16 5 0 -9 -16 -12 -16 -16 -2 -35 11 -16 12 -20 2
-17 -9 4 -14 -2 -14 -14 0 -13 4 -17 11 -11 7 6 11 2 11 -11 0 -10 -3 -19 -6
-19 -3 0 -7 -11 -8 -26 -1 -14 2 -23 7 -19 5 3 13 1 16 -5 4 -6 3 -10 -2 -9
-20 3 -29 -2 -29 -20 0 -16 4 -17 18 -10 10 5 18 13 19 17 5 44 4 52 -4 52 -5
0 -4 7 3 15 9 11 9 15 1 15 -8 0 -9 5 -2 17 6 11 6 24 0 34 -5 10 -9 28 -8 41
1 29 -5 55 -14 64 -4 4 -7 16 -7 27 0 11 -8 26 -17 34 -10 8 -13 12 -7 9 7 -4
9 4 6 21 -5 26 -5 26 -13 5 -12 -31 -16 -27 -11 11 2 22 -3 39 -17 53 -11 12
-17 25 -14 28 4 3 -1 6 -10 6 -9 0 -18 -4 -22 -9z"/>
<path d="M1420 3140 c0 -12 35 -31 44 -23 3 3 6 1 6 -6 0 -8 7 -11 15 -7 14 5
20 -6 16 -28 -1 -5 4 -4 12 3 8 6 17 8 19 4 1 -4 16 -19 33 -33 20 -17 25 -19
15 -6 -14 18 -13 19 3 13 10 -4 21 -7 23 -7 3 0 2 -5 -1 -10 -4 -6 -1 -9 7 -8
7 2 12 -4 10 -12 -2 -8 0 -12 3 -8 4 4 17 2 29 -4 27 -15 48 -19 40 -7 -3 5
-10 7 -15 4 -5 -4 -12 1 -15 9 -3 9 -10 14 -14 11 -4 -3 -14 2 -21 11 -15 18
-69 48 -69 38 0 -4 -9 1 -20 11 -11 10 -20 14 -20 9 0 -5 -5 -1 -11 9 -6 9
-14 15 -19 12 -5 -3 -11 -1 -15 5 -4 6 -10 8 -15 5 -4 -3 -10 2 -14 10 -6 17
-26 21 -26 5z"/>
<path d="M1610 2971 c-8 -6 -19 -7 -25 -4 -5 3 4 -6 20 -20 17 -14 38 -33 48
-41 9 -9 17 -13 18 -8 0 4 4 -3 9 -15 5 -13 17 -23 25 -23 9 0 14 -4 11 -9 -9
-14 24 -22 42 -11 11 6 12 9 4 10 -8 0 -10 5 -6 13 6 9 5 9 -7 0 -13 -11 -18
-9 -29 12 -7 13 -16 22 -20 20 -4 -3 -10 5 -14 18 -5 18 -8 20 -16 7 -9 -14
-15 -7 -11 14 1 5 -6 6 -15 2 -12 -5 -15 -2 -10 9 4 11 2 14 -6 9 -8 -5 -9 -2
-5 9 7 20 7 20 -13 8z"/>
<path d="M1694 2968 c-5 -7 -2 -8 6 -3 7 4 15 2 20 -5 5 -9 8 -8 13 2 6 17
-29 22 -39 6z"/>
<path d="M1745 2950 c-3 -5 -1 -11 5 -15 5 -3 10 -3 10 1 0 4 14 -5 30 -21 17
-16 30 -25 30 -19 1 5 9 -1 19 -13 16 -19 20 -20 25 -7 3 8 2 12 -3 9 -5 -3
-17 5 -25 17 -10 13 -16 17 -16 9 0 -17 -15 -5 -15 12 -1 7 -6 11 -13 10 -7
-2 -12 1 -12 6 0 13 -28 22 -35 11z"/>
<path d="M1870 2862 c0 -9 42 -37 53 -34 4 1 7 -2 7 -7 0 -5 8 -11 18 -13 11
-3 19 0 19 8 0 7 -4 11 -9 8 -5 -3 -16 0 -25 8 -9 7 -19 12 -22 12 -3 -1 -5 2
-3 8 1 5 -2 7 -8 3 -5 -3 -10 -1 -10 4 0 6 -4 11 -10 11 -5 0 -10 -3 -10 -8z"/>
<path d="M1766 2797 c5 -15 28 -29 40 -24 3 1 12 -9 19 -23 7 -14 17 -24 22
-22 4 1 8 -4 8 -10 0 -7 7 -13 15 -13 8 -1 14 -6 13 -13 -2 -7 3 -11 10 -9 7
1 11 -6 9 -18 -2 -11 -1 -17 4 -13 10 11 35 -12 27 -26 -3 -6 -3 -8 2 -4 4 4
14 0 21 -10 7 -9 23 -17 36 -17 16 0 23 -6 23 -19 0 -11 6 -21 13 -24 6 -2 9
-9 6 -14 -5 -7 -2 -8 6 -3 10 6 12 1 8 -19 -4 -20 -2 -24 7 -16 9 8 14 5 18
-10 3 -11 11 -20 19 -19 10 0 10 2 0 6 -10 4 -9 9 5 20 10 8 13 12 8 10 -6 -3
-19 1 -30 9 -10 8 -15 14 -10 14 4 0 -2 8 -13 19 -12 10 -22 23 -22 28 0 10
-46 53 -56 53 -3 0 -3 -7 0 -16 3 -9 2 -12 -5 -9 -5 4 -7 16 -3 27 4 13 2 18
-4 14 -5 -3 -12 3 -15 14 -3 11 -17 24 -32 30 -18 7 -25 15 -21 26 3 8 2 13
-2 10 -4 -2 -16 2 -27 10 -10 8 -15 14 -11 14 5 0 3 7 -4 15 -7 8 -16 12 -21
9 -9 -5 -13 10 -10 30 1 5 -5 4 -13 -4 -13 -10 -19 -10 -31 0 -13 11 -14 10
-9 -3z m79 -37 c3 -5 1 -10 -4 -10 -6 0 -11 5 -11 10 0 6 2 10 4 10 3 0 8 -4
11 -10z m93 -105 c-3 -3 -9 2 -12 12 -6 14 -5 15 5 6 7 -7 10 -15 7 -18z"/>
<path d="M1970 2790 c-9 -6 -10 -10 -3 -10 6 0 15 5 18 10 8 12 4 12 -15 0z"/>
<path d="M1997 2783 c-13 -12 -7 -21 22 -33 16 -6 37 -21 48 -33 40 -45 71
-67 94 -67 5 0 8 -4 4 -9 -3 -5 4 -12 15 -16 11 -4 17 -11 14 -17 -4 -6 -2 -8
4 -4 6 3 13 -3 17 -14 6 -18 12 -22 32 -19 3 0 10 -6 15 -15 5 -9 19 -15 31
-15 20 1 20 2 2 6 -11 3 -25 13 -31 22 -7 9 -18 16 -26 16 -7 0 -12 8 -12 18
1 9 -2 15 -6 12 -4 -2 -25 12 -46 33 -21 20 -39 36 -41 35 -2 -2 -9 -3 -15 -3
-9 0 -8 4 2 11 12 8 11 9 -5 7 -12 -2 -19 2 -17 10 1 8 -1 11 -6 8 -5 -3 -16
3 -25 12 -24 25 -46 42 -54 42 -5 0 -7 5 -5 10 2 12 -2 13 -11 3z"/>
<path d="M2555 2702 c-6 -4 -10 -13 -11 -19 -2 -29 -4 -34 -12 -29 -5 3 -9 -1
-9 -9 0 -8 5 -12 11 -9 6 3 2 -2 -8 -10 -11 -9 -15 -16 -8 -16 8 0 7 -10 -3
-34 -8 -18 -11 -37 -7 -41 4 -4 -4 -4 -18 -1 -14 4 -20 4 -15 -1 16 -13 17
-43 1 -49 -8 -3 -13 -16 -12 -29 2 -15 -1 -22 -9 -19 -17 7 -27 -24 -14 -44 9
-15 10 -15 5 2 -6 16 -4 17 9 6 12 -10 15 -10 15 3 0 8 5 17 11 19 5 2 11 10
13 18 6 35 18 60 29 60 7 0 6 4 -3 10 -12 7 -12 10 -1 10 8 0 11 6 7 16 -4 11
-2 15 7 11 8 -3 14 1 14 9 0 8 -7 14 -14 14 -8 0 -11 5 -8 10 4 6 11 8 16 5 5
-3 6 1 3 9 -4 10 -1 16 7 16 7 0 9 3 6 7 -4 3 -1 13 6 21 9 13 9 14 0 8 -7 -4
-13 -2 -13 3 0 6 5 11 11 11 5 0 8 4 5 9 -4 5 -2 11 4 13 5 1 6 8 2 15 -4 7
-12 9 -17 5z"/>
<path d="M1990 2580 c0 -5 5 -10 10 -10 6 0 10 5 10 10 0 6 -4 10 -10 10 -5 0
-10 -4 -10 -10z"/>
<path d="M2298 2524 c6 -3 12 -13 12 -21 0 -13 3 -13 15 -3 18 15 13 23 -18
26 -12 2 -16 0 -9 -2z"/>
<path d="M2335 2489 c-4 -6 -4 -13 -1 -16 3 -4 6 -1 6 6 0 7 5 9 10 6 6 -4 8
-11 4 -16 -3 -5 0 -8 8 -7 7 2 12 -4 10 -12 -2 -8 0 -12 4 -8 4 4 12 0 19 -9
13 -17 36 -10 34 10 0 9 -2 9 -6 0 -7 -18 -21 -16 -28 5 -8 24 -52 55 -60 41z"/>
<path d="M2103 2484 c3 -4 2 -16 -4 -27 -8 -14 -8 -18 0 -13 6 4 11 2 11 -4 0
-6 5 -8 10 -5 6 3 10 -1 10 -9 0 -9 3 -16 8 -16 4 0 12 -10 17 -21 6 -12 15
-21 20 -21 6 0 14 -9 19 -21 8 -19 10 -19 13 -5 4 16 -1 25 -34 62 -7 8 -9 17
-5 21 4 5 -1 5 -10 2 -12 -4 -15 -2 -11 9 3 7 0 14 -5 14 -6 0 -14 9 -17 20
-3 11 -11 20 -17 20 -6 0 -8 -3 -5 -6z"/>
<path d="M2220 2345 c-10 -36 -6 -55 13 -61 16 -5 17 -8 6 -15 -12 -7 -11 -9
1 -9 13 0 13 -1 0 -10 -12 -7 -12 -12 -2 -22 9 -9 12 -9 12 1 0 7 6 11 14 8
10 -4 13 -1 9 9 -3 7 0 14 7 14 7 0 5 6 -4 16 -9 8 -13 21 -9 27 4 7 -1 6 -10
-2 -15 -12 -17 -12 -11 4 5 12 4 16 -4 11 -6 -3 -12 3 -15 16 -2 13 -5 19 -7
13z"/>
<path d="M220 2311 c5 -11 10 -29 10 -40 0 -12 5 -21 11 -21 6 0 8 7 5 16 -3
9 -9 27 -12 40 -3 13 -10 24 -15 24 -6 0 -5 -8 1 -19z"/>
<path d="M416 2273 c-4 -9 -3 -20 1 -24 4 -4 9 3 9 17 2 28 -1 31 -10 7z"/>
<path d="M2208 2244 c-4 -3 -4 -13 -1 -22 5 -12 2 -14 -11 -9 -9 4 -15 3 -11
-2 7 -12 -101 -65 -114 -56 -7 3 -8 0 -5 -9 4 -11 0 -14 -16 -11 -12 2 -23 -2
-27 -10 -3 -8 -10 -12 -15 -9 -6 4 -14 1 -18 -6 -5 -7 -27 -14 -51 -14 -25 -1
-44 -7 -47 -14 -3 -10 -7 -10 -18 -1 -8 6 -14 10 -15 8 -8 -38 -7 -40 7 -28 8
6 14 8 14 4 0 -4 6 -2 13 4 8 6 18 7 22 3 5 -4 5 -1 1 6 -4 6 -2 12 3 12 6 0
11 -6 11 -12 0 -9 3 -9 9 1 5 8 16 11 24 8 9 -3 21 0 27 8 6 7 20 12 31 10 11
-2 22 2 25 10 3 7 11 12 18 9 7 -3 19 2 26 10 7 9 17 13 23 9 5 -3 15 1 21 9
12 15 46 32 59 29 5 -1 6 3 2 9 -3 5 1 10 9 10 8 0 18 4 21 10 7 12 -8 43 -17
34z"/>
<path d="M591 2187 c2 -1 13 -9 24 -17 19 -14 19 -14 6 3 -7 9 -18 17 -24 17
-6 0 -8 -1 -6 -3z"/>
<path d="M33 2152 c-1 -22 0 -24 9 -8 6 10 6 22 2 26 -5 5 -10 -3 -11 -18z"/>
<path d="M667 2159 c7 -7 15 -10 18 -7 3 3 -2 9 -12 12 -14 6 -15 5 -6 -5z"/>
<path d="M325 2088 c-4 -29 -9 -60 -10 -68 -1 -8 -6 -44 -10 -80 -6 -54 -22
-95 -96 -242 l-89 -178 75 0 76 0 54 111 c58 117 61 120 46 42 -6 -26 -12 -72
-16 -100 l-5 -53 69 0 c39 0 72 3 74 8 3 4 8 43 12 87 17 201 26 256 44 289
52 92 121 224 121 230 0 4 -28 6 -62 4 l-61 -3 -28 -50 c-16 -27 -35 -65 -43
-82 -8 -18 -18 -33 -21 -33 -3 0 -4 4 -1 8 3 5 8 31 11 58 3 27 8 61 11 77 l6
27 -75 0 -75 0 -7 -52z"/>
<path d="M2527 2079 c7 -7 15 -10 18 -7 3 3 -2 9 -12 12 -14 6 -15 5 -6 -5z"/>
<path d="M1750 2065 c-10 -12 -10 -15 2 -15 8 0 15 7 15 15 0 8 -1 15 -2 15
-2 0 -8 -7 -15 -15z"/>
<path d="M1803 2073 c-13 -2 -23 -8 -23 -13 0 -6 10 -6 24 0 13 5 27 6 32 2 4
-4 4 -1 0 6 -4 6 -8 11 -9 11 -1 -1 -12 -4 -24 -6z"/>
<path d="M20 2059 c0 -5 5 -7 10 -4 6 3 10 8 10 11 0 2 -4 4 -10 4 -5 0 -10
-5 -10 -11z"/>
<path d="M2336 2030 c-58 -18 -105 -61 -136 -124 -41 -85 -100 -260 -100 -297
0 -68 45 -99 142 -99 111 1 188 55 233 166 l24 59 -71 3 c-39 2 -76 1 -82 -1
-6 -3 -20 -30 -30 -61 -11 -32 -28 -62 -38 -67 -24 -13 -23 1 5 87 l24 69 97
3 c110 3 103 -3 131 116 17 71 3 116 -42 139 -33 16 -115 20 -157 7z m64 -91
c0 -7 -5 -29 -12 -50 -9 -31 -16 -39 -35 -39 -12 0 -23 2 -23 4 0 10 24 73 33
84 12 15 37 16 37 1z"/>
<path d="M2844 2026 c-17 -8 -42 -24 -54 -37 -22 -23 -22 -20 -5 24 7 16 1 18
-71 15 l-78 -3 -12 -40 c-6 -22 -35 -103 -64 -180 -47 -125 -100 -274 -100
-281 0 -2 17 -4 38 -6 l37 -4 -40 -18 c-28 -13 -52 -16 -82 -12 -39 5 -45 3
-65 -25 -13 -17 -36 -38 -51 -46 -34 -17 -103 -15 -134 5 -13 8 -23 11 -23 7
0 -4 -7 -2 -15 5 -10 8 -15 9 -15 1 0 -6 12 -14 28 -17 15 -4 32 -10 37 -14 9
-7 88 -14 128 -11 9 0 33 17 51 36 32 32 39 35 95 35 53 0 65 4 94 30 19 17
46 30 60 30 20 0 27 6 32 30 7 30 26 46 62 53 36 7 53 20 82 58 22 31 27 47
24 76 -5 50 -13 55 -13 10 0 -26 -8 -46 -30 -70 -28 -32 -85 -65 -95 -55 -9 8
57 193 75 212 10 10 33 20 51 22 18 2 33 5 34 6 10 17 62 178 57 178 -4 -1
-21 -7 -38 -14z"/>
<path d="M20 1981 c0 -6 4 -13 10 -16 6 -3 7 1 4 9 -7 18 -14 21 -14 7z"/>
<path d="M20 1939 c0 -5 5 -7 10 -4 6 3 10 8 10 11 0 2 -4 4 -10 4 -5 0 -10
-5 -10 -11z"/>
<path d="M2770 1845 c0 -5 5 -17 10 -25 5 -8 10 -10 10 -5 0 6 -5 17 -10 25
-5 8 -10 11 -10 5z"/>
<path d="M3623 1747 c6 -15 1 -18 -31 -17 -37 2 -85 -4 -132 -16 -14 -3 -37
-8 -53 -11 -15 -3 -30 -9 -33 -14 -3 -5 -13 -9 -23 -9 -31 0 -178 -79 -249
-133 -77 -59 -163 -147 -156 -159 3 -4 -2 -11 -11 -14 -9 -4 -14 -13 -11 -21
3 -8 1 -11 -4 -8 -6 3 -10 -1 -10 -9 0 -9 -5 -16 -11 -16 -6 0 -9 -7 -6 -14 4
-10 1 -13 -7 -10 -8 3 -17 0 -22 -7 -5 -8 -3 -10 7 -4 12 7 12 6 1 -7 -17 -21
-7 -41 28 -56 17 -8 27 -18 23 -25 -4 -6 0 -8 10 -4 9 3 18 0 21 -9 3 -8 12
-14 21 -14 8 0 15 -4 15 -10 0 -5 6 -9 13 -7 6 1 11 -4 9 -11 -2 -9 4 -12 17
-7 12 3 21 0 25 -10 3 -8 12 -15 21 -15 8 0 15 -4 15 -10 0 -5 9 -10 20 -10
11 0 20 -4 20 -9 0 -9 83 -52 107 -55 7 -1 16 -6 20 -11 4 -4 1 -5 -7 -1 -8 4
-6 0 4 -8 11 -9 28 -16 37 -16 10 0 19 -5 21 -10 2 -6 13 -12 25 -13 12 0 19
-5 17 -9 -3 -4 3 -8 14 -8 10 0 27 -9 37 -20 15 -16 21 -18 33 -7 13 9 14 9 8
0 -4 -8 -2 -13 8 -13 8 0 16 -5 18 -10 2 -6 13 -12 25 -13 12 0 19 -5 17 -9
-5 -7 10 -12 29 -9 4 0 7 -4 7 -10 0 -5 5 -7 10 -4 6 3 10 1 10 -6 0 -7 8 -9
21 -6 15 4 18 3 9 -7 -8 -10 -5 -12 15 -8 17 3 27 -1 31 -13 5 -13 9 -14 15
-3 7 10 9 9 9 -4 0 -21 11 -23 29 -5 11 10 13 9 7 -1 -8 -14 31 -32 53 -24 10
4 12 1 6 -8 -5 -9 -4 -11 4 -6 6 4 18 0 27 -8 17 -18 39 -22 29 -6 -9 14 1 13
17 -2 21 -20 61 -41 54 -29 -4 7 -1 8 8 5 9 -3 14 -10 11 -14 -2 -4 8 -7 23
-6 18 0 26 -4 24 -14 -3 -11 0 -11 12 0 12 9 16 9 16 1 0 -7 5 -9 12 -5 6 4
17 -1 25 -11 7 -11 13 -13 13 -7 0 9 5 10 19 3 10 -6 21 -7 25 -4 3 3 6 2 6
-4 0 -6 9 -9 20 -6 11 3 20 1 20 -5 0 -6 12 -9 26 -7 14 1 28 -3 30 -9 2 -6
17 -11 32 -10 15 0 30 -4 34 -9 4 -7 11 -7 21 1 11 10 17 9 27 -3 8 -9 21 -13
33 -9 13 4 17 2 13 -5 -11 -17 -37 -13 -52 6 -12 16 -12 15 -7 -7 5 -20 4 -23
-8 -14 -8 5 -21 10 -29 9 -8 0 -18 4 -22 10 -5 6 -11 5 -18 -5 -7 -11 -10 -11
-10 -2 0 7 -4 10 -10 7 -5 -3 -10 0 -10 7 0 10 -2 10 -9 -1 -7 -11 -9 -11 -14
0 -4 11 -6 11 -6 0 -1 -11 -5 -10 -16 5 -15 19 -15 19 -9 -1 6 -20 5 -20 -10
-1 -12 15 -16 16 -16 5 0 -8 -3 -10 -8 -4 -4 6 -23 12 -42 13 -19 2 -41 8 -47
14 -9 7 -13 7 -13 -3 0 -10 -3 -10 -12 -1 -7 7 -23 12 -36 12 -16 0 -21 4 -16
13 5 8 2 8 -9 -2 -13 -10 -17 -10 -17 -1 0 9 -3 10 -14 1 -10 -9 -16 -8 -26 4
-7 8 -16 12 -21 9 -5 -3 -9 1 -9 8 0 8 -3 9 -8 3 -4 -5 -13 -11 -21 -13 -12
-3 -12 -1 0 14 13 16 12 17 -5 7 -14 -7 -26 -7 -44 3 -20 10 -29 11 -41 1 -10
-8 -13 -8 -8 -1 8 14 -9 22 -40 19 -12 -1 -20 2 -17 7 4 7 -26 13 -48 9 -5 0
-8 5 -8 12 0 8 -4 7 -10 -3 -8 -13 -10 -12 -10 3 0 10 -5 15 -10 12 -6 -4 -17
-2 -25 5 -7 6 -24 13 -37 15 -60 12 -71 15 -82 23 -21 17 -48 23 -39 9 4 -6
-5 -4 -20 6 -14 9 -35 17 -47 17 -11 0 -20 4 -20 9 0 5 -12 8 -26 6 -15 -1
-28 3 -31 11 -3 8 -13 14 -22 14 -9 0 -23 6 -30 12 -9 8 -12 9 -7 1 4 -8 0 -8
-19 0 -14 7 -25 15 -25 20 0 4 -9 7 -19 7 -11 0 -23 5 -26 10 -5 8 -12 7 -23
-2 -9 -7 -13 -8 -10 -3 3 6 -14 19 -38 31 -24 11 -40 16 -37 10 4 -6 -3 -2
-15 8 -12 11 -25 16 -29 13 -3 -4 -12 1 -20 11 -8 9 -12 11 -8 5 3 -7 1 -13
-4 -13 -6 0 -11 6 -11 14 0 8 -5 18 -12 22 -7 4 -8 3 -4 -4 10 -16 0 -15 -29
4 -14 9 -32 14 -40 10 -9 -3 -15 0 -15 8 0 22 -55 42 -67 24 -3 -7 -1 -8 5 -4
7 4 12 2 12 -3 0 -6 -5 -11 -11 -11 -5 0 -7 -4 -4 -10 3 -5 0 -10 -7 -10 -9 0
-9 -3 2 -10 12 -8 12 -10 1 -10 -11 0 -11 -3 -1 -15 8 -9 9 -15 2 -15 -6 0 -9
-9 -7 -20 2 -11 0 -20 -5 -20 -5 0 -5 -13 0 -30 6 -21 5 -30 -3 -30 -7 0 -6
-4 3 -10 8 -5 11 -10 5 -10 -5 0 -10 -11 -10 -24 0 -13 3 -22 7 -20 4 2 9 0
13 -6 3 -5 0 -10 -7 -10 -9 0 -9 -3 2 -10 12 -8 12 -10 1 -10 -11 0 -11 -3 0
-17 12 -14 12 -15 0 -9 -8 6 -7 0 4 -18 14 -20 14 -26 4 -26 -11 0 -11 -2 1
-10 8 -5 11 -12 7 -16 -4 -4 1 -16 10 -27 10 -11 12 -17 6 -13 -18 10 -16 -9
2 -27 11 -12 12 -17 2 -20 -9 -4 -9 -6 0 -6 7 -1 10 -8 7 -16 -4 -8 -1 -15 6
-15 7 0 9 -8 4 -22 -3 -13 -3 -20 1 -16 10 9 35 -37 35 -63 0 -10 4 -21 10
-24 6 -3 8 2 5 12 -3 10 1 6 8 -10 7 -15 17 -24 21 -20 4 4 4 -1 0 -11 -5 -14
-4 -17 4 -12 7 4 12 1 12 -8 0 -9 5 -16 10 -16 6 0 10 -5 10 -10 0 -14 46 -60
60 -60 6 0 9 -4 6 -9 -3 -4 6 -13 19 -19 14 -7 25 -16 25 -22 0 -5 5 -10 11
-10 7 0 18 -8 26 -17 10 -12 12 -13 8 -3 -4 8 3 2 15 -13 18 -22 25 -25 36
-16 11 9 14 8 14 -4 0 -9 5 -19 12 -23 7 -5 8 -3 3 7 -8 12 -6 12 8 0 9 -7 15
-16 13 -20 -2 -3 8 -7 23 -8 14 -1 40 -9 56 -17 15 -8 32 -13 37 -10 4 3 8 0
8 -6 0 -6 5 -8 10 -5 6 3 10 2 10 -4 0 -6 7 -8 15 -5 8 4 15 1 15 -6 0 -9 4
-9 17 1 11 10 14 10 9 1 -5 -8 0 -12 18 -12 13 0 26 -6 29 -12 3 -10 7 -10 20
0 13 11 17 10 26 -5 7 -12 10 -14 11 -4 0 11 4 10 19 -3 15 -13 20 -14 24 -4
4 9 6 10 6 1 1 -9 8 -10 27 -3 14 6 23 6 20 1 -3 -5 3 -11 14 -14 10 -3 21 0
24 7 2 6 5 7 5 1 1 -5 19 -9 41 -9 22 1 40 -3 40 -8 0 -6 8 -4 17 3 11 10 14
10 9 2 -4 -7 -3 -13 3 -13 5 0 12 6 14 13 4 9 8 8 16 -3 10 -13 11 -13 11 0 0
13 1 13 10 0 9 -13 11 -13 20 0 8 12 11 13 19 1 7 -11 9 -11 14 0 5 12 6 12 6
0 1 -11 4 -11 18 0 15 12 16 12 8 -1 -5 -9 1 -7 15 5 13 11 20 15 17 9 -5 -8
2 -11 18 -10 14 0 25 6 25 11 0 6 5 3 10 -5 6 -9 10 -11 10 -3 0 7 7 10 16 6
9 -3 20 0 25 8 7 12 9 12 9 -1 0 -13 1 -13 11 0 7 11 12 12 15 3 3 -7 12 -9
20 -6 7 3 11 9 8 14 -8 13 10 11 24 -3 9 -9 12 -9 12 1 0 7 8 11 18 10 33 -3
43 1 36 14 -5 8 -2 8 9 -2 13 -11 17 -11 17 -1 0 8 3 10 7 7 3 -4 13 -1 21 6
13 9 14 9 8 0 -5 -9 -2 -11 8 -7 9 3 16 11 16 18 0 7 3 6 9 -2 7 -11 9 -10 14
3 5 13 11 14 27 5 16 -8 20 -8 18 2 -2 7 3 12 11 10 7 -1 20 3 28 10 12 9 16
9 24 -3 7 -12 9 -11 9 3 0 9 5 20 12 24 7 5 8 3 3 -7 -8 -12 -6 -12 8 0 9 7
17 10 17 6 0 -5 10 0 22 11 14 13 19 14 14 4 -6 -12 -5 -12 6 1 7 9 18 14 25
12 6 -2 14 1 18 6 3 6 15 11 26 11 10 0 19 5 19 12 0 6 3 8 7 5 3 -4 12 1 20
11 8 9 12 11 8 5 -4 -9 -1 -11 9 -7 9 3 13 11 9 17 -3 5 -1 7 5 4 15 -10 43 3
35 16 -4 6 0 8 10 4 10 -3 17 -2 17 3 0 5 7 7 15 3 10 -3 15 0 13 8 -2 9 5 14
20 13 14 -1 21 3 19 10 -3 7 4 13 15 13 11 1 27 10 35 20 9 11 12 12 8 3 -4
-9 -1 -8 8 3 9 10 18 18 21 18 20 -3 26 1 26 15 0 11 6 15 20 11 11 -3 18 -1
14 4 -3 5 0 9 6 9 6 0 9 4 6 9 -4 5 5 8 18 7 14 -2 25 0 24 3 -2 20 3 31 12
26 6 -3 10 -1 10 5 0 7 7 10 15 7 8 -4 22 4 33 18 11 13 22 21 26 18 6 -6 10
12 7 30 -1 5 3 6 8 3 5 -3 14 0 20 8 8 10 6 17 -9 31 -14 13 -17 22 -9 31 7 8
7 14 -1 19 -5 3 -10 15 -10 26 0 10 -5 19 -10 19 -6 0 -9 3 -9 8 3 19 -2 43
-8 39 -5 -3 -9 7 -10 21 0 15 -6 28 -12 30 -6 2 -11 11 -11 20 0 10 -9 23 -20
30 -12 7 -17 18 -13 29 4 11 3 14 -5 9 -8 -5 -10 -2 -6 8 3 9 1 16 -5 16 -6 0
-11 7 -11 15 0 8 -5 15 -11 15 -5 0 -7 5 -4 10 3 6 1 10 -6 10 -7 0 -10 3 -6
6 3 4 -4 15 -16 25 -20 18 -20 18 -2 12 17 -5 16 -3 -5 15 -14 12 -21 21 -15
22 5 0 -1 7 -13 16 -12 8 -22 22 -22 30 0 8 -4 14 -10 14 -5 0 -10 7 -10 16 0
8 -4 13 -9 10 -5 -4 -15 7 -23 24 -7 16 -16 30 -20 30 -5 0 -8 10 -8 23 0 18
-2 19 -10 7 -8 -13 -10 -12 -10 3 0 10 -7 20 -15 23 -8 4 -12 10 -9 15 3 5 -1
9 -9 9 -8 0 -18 7 -21 16 -6 15 -4 15 11 3 16 -13 17 -12 4 4 -7 9 -18 17 -23
17 -13 0 -58 47 -58 61 0 7 -3 10 -6 6 -9 -9 -34 19 -35 40 0 10 -3 13 -6 6
-3 -10 -7 -10 -18 0 -7 7 -11 15 -8 20 2 4 -1 7 -7 7 -15 0 -40 25 -40 40 0 6
-4 8 -10 5 -5 -3 -10 -1 -10 5 0 6 -4 8 -10 5 -5 -3 -10 1 -10 9 0 9 -6 15
-12 14 -7 -2 -12 3 -10 10 1 6 -1 11 -5 11 -5 -1 -15 -1 -23 0 -13 1 -13 2 0
11 12 8 11 10 -7 10 -13 0 -23 5 -23 10 0 6 -7 10 -15 10 -8 0 -15 5 -15 10 0
6 -7 10 -15 10 -8 0 -15 7 -15 15 0 8 -5 15 -11 15 -5 0 -7 -6 -3 -12 6 -10 5
-10 -8 -1 -8 7 -18 9 -22 5 -4 -4 -6 -2 -4 3 2 6 0 11 -4 13 -5 1 -17 11 -28
22 -11 11 -29 20 -39 20 -10 0 -22 8 -26 18 -7 16 -8 15 -15 -3 -8 -18 -9 -19
-9 -1 -1 11 -6 16 -15 13 -8 -3 -16 -1 -18 4 -2 5 -13 11 -26 12 -15 1 -21 6
-17 16 4 11 2 11 -9 2 -11 -9 -15 -8 -20 5 -5 13 -10 14 -18 6 -8 -8 -17 -8
-30 -1 -11 6 -26 8 -34 5 -7 -3 -18 3 -24 12 -7 13 -12 14 -18 5 -6 -10 -14
-9 -35 2 -15 7 -27 11 -27 7 0 -4 -11 -7 -24 -7 -13 0 -22 3 -19 8 2 4 -1 7
-6 7 -6 0 -11 -4 -11 -10 0 -5 -7 -7 -16 -3 -13 5 -13 7 -2 14 10 7 10 9 0 9
-7 0 -15 -6 -18 -13 -7 -18 -65 -10 -83 12 -13 15 -13 15 -8 -2z m782 -1151
c17 7 29 -13 14 -22 -8 -4 -9 -3 -5 4 4 7 3 12 -3 12 -5 0 -13 -5 -16 -10 -5
-8 -11 -8 -19 -1 -7 6 -17 7 -22 3 -4 -4 -2 1 5 11 9 11 18 14 24 8 5 -5 15
-7 22 -5z"/>
<path d="M1830 1476 c0 -2 7 -7 16 -10 8 -3 12 -2 9 4 -6 10 -25 14 -25 6z"/>
<path d="M1960 1469 c-12 -8 -10 -9 8 -4 12 3 22 3 22 -2 0 -5 10 -9 23 -10
21 -2 21 -1 -3 12 -30 17 -31 17 -50 4z"/>
<path d="M2070 1453 c8 -3 19 -11 23 -17 6 -7 7 -6 4 4 -2 8 -12 16 -23 17
-13 2 -15 1 -4 -4z"/>
<path d="M1585 1427 c-16 -12 -26 -17 -22 -10 4 7 -2 10 -17 9 -18 -1 -22 -4
-14 -13 7 -9 2 -10 -21 -3 -17 5 -29 5 -26 0 3 -5 1 -11 -5 -15 -5 -3 -10 0
-10 7 -1 8 -5 7 -14 -5 -11 -14 -15 -15 -19 -5 -4 11 -6 11 -6 0 -1 -7 -5 -10
-11 -7 -5 3 -10 1 -10 -5 0 -6 -4 -8 -10 -5 -5 3 -10 1 -10 -6 0 -9 -3 -9 -14
0 -11 9 -17 8 -28 -8 -8 -12 -18 -18 -21 -15 -4 4 -10 -1 -13 -10 -5 -14 -9
-15 -15 -4 -7 10 -9 10 -9 1 0 -7 -7 -13 -16 -13 -8 0 -12 -4 -9 -10 3 -5 -3
-10 -14 -10 -12 0 -21 -5 -21 -11 0 -6 -7 -8 -16 -5 -11 4 -15 2 -11 -8 4 -9
-5 -19 -24 -27 -17 -6 -26 -15 -20 -19 6 -3 -5 -12 -24 -19 -32 -11 -40 -21
-36 -44 0 -4 -5 -6 -11 -5 -7 2 -12 -3 -10 -11 3 -12 1 -12 -14 0 -12 9 -15 9
-10 2 4 -8 2 -13 -4 -13 -6 0 -8 -5 -5 -10 3 -6 -1 -13 -9 -16 -9 -3 -13 -10
-10 -15 3 -5 0 -9 -5 -9 -6 0 -11 -7 -11 -16 0 -8 -4 -12 -10 -9 -5 3 -10 -1
-10 -9 0 -9 -4 -16 -10 -16 -5 0 -7 -7 -4 -15 4 -11 2 -13 -9 -9 -11 4 -15 0
-13 -12 2 -10 -7 -27 -18 -37 -12 -10 -14 -16 -6 -12 8 4 6 -1 -4 -9 -11 -9
-16 -16 -11 -16 5 0 1 -6 -10 -13 -10 -8 -15 -19 -11 -25 3 -6 -1 -17 -9 -26
-9 -9 -18 -26 -20 -38 -3 -13 -12 -29 -22 -35 -13 -10 -14 -13 -2 -13 11 -1
10 -4 -3 -14 -10 -7 -15 -16 -11 -19 3 -4 1 -13 -5 -20 -7 -8 -9 -17 -5 -20 3
-4 1 -7 -6 -7 -7 0 -9 -4 -6 -10 3 -5 -2 -21 -11 -35 -9 -14 -13 -25 -9 -25 4
0 1 -8 -6 -17 -12 -14 -12 -16 1 -9 8 4 4 -2 -10 -14 -14 -12 -19 -19 -12 -15
6 3 12 1 12 -4 0 -6 -5 -11 -11 -11 -8 0 -8 -5 1 -15 10 -12 10 -15 -3 -15
-10 0 -15 -7 -12 -20 2 -11 0 -20 -4 -20 -4 0 -8 -17 -9 -37 -1 -20 -5 -39 -9
-42 -11 -8 -10 -53 0 -69 6 -8 4 -12 -4 -10 -7 2 -13 -6 -13 -17 0 -11 -5 -23
-11 -27 -6 -5 -5 -11 5 -18 13 -9 13 -10 0 -10 -12 0 -13 -2 -1 -9 11 -7 11
-9 0 -14 -12 -5 -12 -6 0 -6 11 -1 11 -4 0 -18 -12 -14 -12 -16 1 -9 9 4 8 2
-2 -7 -10 -8 -15 -17 -11 -20 10 -11 9 -87 -2 -87 -5 0 -3 -5 5 -10 13 -9 13
-10 0 -10 -12 -1 -12 -3 2 -14 12 -8 14 -16 7 -23 -6 -6 -5 -10 3 -10 7 0 27
-4 43 -9 17 -5 316 -10 665 -11 560 -2 636 -1 643 13 7 12 12 13 25 2 9 -7 14
-9 10 -4 -9 11 14 35 28 29 6 -2 14 3 17 11 4 9 13 13 22 10 8 -3 15 -1 15 6
0 6 5 8 10 5 6 -3 10 -2 10 3 0 5 9 12 21 15 12 3 18 10 14 16 -3 7 0 8 9 5 9
-3 16 -2 16 4 0 5 9 12 21 15 12 3 18 10 14 16 -3 6 0 9 8 5 9 -3 21 4 29 15
8 12 18 18 21 14 4 -3 7 1 7 11 0 11 4 14 12 10 8 -5 9 -2 4 12 -4 10 -4 15 0
12 10 -10 46 11 39 23 -5 8 7 13 26 11 4 -1 6 6 5 16 0 10 5 16 13 14 12 -3
12 -1 1 13 -7 9 -9 15 -4 14 5 -1 15 -1 23 0 11 1 11 4 0 18 -10 11 -10 14 -1
9 8 -5 15 2 22 18 5 14 14 26 20 26 6 0 9 4 5 9 -3 5 -1 12 4 16 6 3 7 13 4
22 -4 10 -2 14 5 9 6 -3 13 -2 17 4 3 5 1 10 -5 10 -6 0 -8 5 -5 10 4 6 11 8
16 5 5 -3 6 1 3 9 -3 8 0 24 6 36 10 18 10 21 -2 14 -11 -6 -11 -5 1 9 7 9 11
28 9 42 -3 14 -2 25 3 25 4 0 6 9 4 20 -2 11 1 20 6 20 6 0 6 7 0 18 -7 13 -6
23 1 30 9 9 9 12 -1 12 -11 0 -11 3 -1 15 7 8 8 15 2 15 -14 0 -22 50 -8 50 6
0 2 7 -8 15 -14 11 -16 15 -5 15 12 0 12 2 -1 10 -13 9 -13 10 0 10 13 0 13 1
0 10 -8 5 -10 10 -5 10 6 0 2 7 -8 14 -16 13 -16 14 -1 20 16 6 16 8 0 25 -9
10 -18 28 -19 40 -1 11 -5 21 -9 21 -4 0 -8 9 -8 21 0 11 -4 17 -10 14 -6 -4
-7 1 -3 11 4 10 0 20 -11 26 -9 5 -13 14 -10 20 5 7 2 9 -8 5 -9 -3 -20 -1
-26 5 -7 7 -14 4 -24 -11 -7 -11 -18 -21 -25 -21 -7 0 -13 -7 -13 -16 0 -9 -5
-12 -12 -8 -8 5 -9 2 -4 -12 4 -10 4 -15 0 -11 -4 4 -13 -1 -21 -11 -12 -16
-13 -15 -7 3 7 20 7 20 -9 0 -8 -11 -13 -23 -11 -27 3 -4 -2 -5 -10 -2 -11 4
-16 0 -16 -11 0 -9 -3 -14 -7 -12 -5 2 -19 -8 -33 -21 -14 -14 -19 -21 -11
-17 10 6 12 4 7 -4 -5 -7 -10 -10 -13 -7 -10 10 -44 -15 -37 -26 5 -7 0 -9
-14 -6 -14 4 -19 2 -16 -7 3 -6 -3 -18 -12 -26 -16 -12 -17 -12 -10 1 4 8 -5
2 -19 -15 -15 -16 -24 -23 -20 -15 3 8 -1 6 -10 -5 -9 -11 -21 -19 -26 -17 -5
1 -9 -4 -9 -12 0 -8 -5 -18 -12 -22 -7 -5 -9 -2 -4 7 4 8 1 6 -7 -3 -8 -10
-18 -14 -22 -10 -5 4 -5 -1 -2 -10 4 -11 2 -15 -6 -12 -7 2 -24 -7 -39 -21
-15 -14 -33 -24 -40 -23 -7 2 -12 -5 -12 -14 1 -10 -2 -16 -6 -13 -5 3 -16 -5
-26 -17 -14 -20 -16 -21 -10 -3 6 19 5 19 -8 3 -7 -10 -19 -18 -25 -18 -7 0
-9 -4 -6 -10 3 -5 1 -10 -5 -10 -6 0 -31 -13 -55 -30 -24 -16 -49 -30 -55 -30
-6 0 -8 -4 -5 -10 6 -9 -17 -15 -40 -10 -5 1 -7 -2 -3 -6 10 -9 -52 -55 -63
-48 -5 3 -9 0 -9 -6 0 -7 -7 -10 -14 -7 -11 4 -13 1 -9 -10 4 -10 2 -14 -4
-10 -6 4 -19 -1 -29 -10 -10 -10 -19 -17 -21 -15 -9 7 -23 0 -18 -9 4 -6 1
-10 -6 -9 -24 4 -59 -12 -52 -23 3 -5 1 -7 -5 -3 -6 3 -13 2 -17 -4 -3 -5 -15
-10 -26 -10 -11 0 -18 -4 -15 -9 3 -5 -2 -8 -12 -7 -9 0 -16 -4 -15 -11 1 -6
-5 -10 -15 -8 -9 1 -19 -1 -22 -5 -3 -5 -14 -10 -25 -12 -11 -1 -23 -7 -27
-13 -12 -15 -10 7 2 25 7 11 10 11 10 2 0 -7 5 -10 10 -7 6 4 8 11 5 16 -3 5
1 6 9 3 11 -4 16 0 16 11 0 9 5 13 11 10 6 -4 17 3 26 14 12 18 18 20 29 10 9
-7 14 -8 13 -3 -3 20 1 35 10 29 5 -3 17 2 25 11 9 8 16 12 16 8 0 -4 6 0 13
11 9 11 19 15 27 10 9 -6 11 -4 5 5 -6 10 -4 12 8 7 9 -3 19 -1 23 5 5 7 2 8
-6 3 -8 -5 -11 -3 -8 6 3 8 10 14 17 14 6 0 16 7 21 15 5 8 14 16 20 16 5 1
15 2 21 3 5 0 7 6 3 13 -5 7 -2 9 9 5 11 -4 14 -2 10 9 -3 8 -2 14 3 13 17 -4
44 13 44 27 0 8 3 13 8 13 20 -3 32 2 32 16 0 8 6 15 13 15 17 0 67 52 67 71
0 12 2 12 10 -1 8 -13 10 -12 10 4 0 11 3 16 7 13 3 -4 15 5 25 20 10 16 18
24 18 18 0 -5 11 3 25 19 13 16 22 33 18 39 -3 5 -1 7 5 3 6 -3 17 3 25 14 7
11 17 17 20 13 4 -3 7 1 7 11 0 11 4 14 12 10 8 -5 9 -2 4 12 -4 10 -4 15 0
12 9 -10 46 11 39 21 -3 5 2 12 11 15 9 4 14 13 10 22 -3 8 -2 13 2 11 10 -7
32 19 24 27 -3 4 2 4 12 0 13 -5 17 -4 12 4 -3 6 2 15 11 21 10 6 14 11 8 11
-5 0 4 9 20 20 17 11 26 20 21 20 -4 0 2 9 15 21 13 11 17 18 9 14 -8 -4 -6 0
4 9 10 8 22 13 27 11 4 -3 5 3 2 13 -2 11 3 25 14 33 17 13 17 13 3 -6 -14
-18 -14 -19 2 -7 10 8 17 17 16 20 -2 21 4 32 17 32 8 0 15 7 15 16 0 8 4 13
8 10 13 -8 7 33 -6 46 -7 7 -12 9 -12 5 0 -4 -13 6 -30 23 -28 29 -58 42 -44
18 4 -7 3 -8 -5 -4 -6 4 -8 12 -5 18 5 7 1 9 -9 5 -12 -4 -14 -2 -10 10 4 10
2 14 -4 10 -5 -3 -26 2 -46 13 -26 14 -37 16 -40 7 -3 -7 -6 -4 -6 6 -1 11 -6
15 -13 11 -6 -4 -16 -1 -22 7 -6 8 -20 15 -31 16 -11 0 -31 4 -45 8 -14 4 -31
7 -37 7 -7 1 -13 6 -13 11 0 5 -6 4 -14 -2 -11 -10 -17 -8 -25 6 -7 12 -10 13
-11 4 0 -11 -3 -11 -15 -1 -8 7 -15 8 -15 3 0 -12 -60 -4 -78 10 -10 8 -16 7
-20 0 -10 -16 -75 -20 -87 -6 -8 9 -17 7 -40 -10z m175 -770 c0 -2 -10 -12
-22 -23 l-23 -19 19 23 c18 21 26 27 26 19z m-513 -382 c0 -8 -4 -12 -9 -9 -5
3 -6 10 -3 15 9 13 12 11 12 -6z"/>
<path d="M1388 1413 c7 -3 16 -2 19 1 4 3 -2 6 -13 5 -11 0 -14 -3 -6 -6z"/>
<path d="M150 1361 c0 -6 4 -13 10 -16 6 -3 7 1 4 9 -7 18 -14 21 -14 7z"/>
<path d="M216 1285 c4 -8 11 -15 16 -15 6 0 5 6 -2 15 -7 8 -14 15 -16 15 -2
0 -1 -7 2 -15z"/>
<path d="M2450 1089 c0 -5 5 -7 10 -4 6 3 10 8 10 11 0 2 -4 4 -10 4 -5 0 -10
-5 -10 -11z"/>
</g>
</svg>
